<svg width="26" height="27" viewBox="0 0 26 27" fill="none" xmlns="http://www.w3.org/2000/svg">
<path d="M24.1417 10.3214C24.1417 15.3569 24.1417 20.3934 24.1417 25.4289C24.1296 25.4636 24.1129 25.4983 24.1074 25.534C24.0414 25.8995 23.8734 26.2023 23.6004 26.4433C23.2521 26.7519 22.8399 26.829 22.396 26.8281C16.4392 26.8252 10.4834 26.8262 4.52657 26.8262C4.45321 26.8262 4.37893 26.8213 4.30557 26.8223C3.58314 26.8339 2.766 26.1936 2.7855 25.1734C2.81336 23.7231 2.79293 22.2728 2.79293 20.8215C2.79293 17.4089 2.79478 13.9973 2.79107 10.5847C2.79107 10.2105 2.85607 9.8499 3.04178 9.5394C3.65278 8.5134 4.29257 7.50476 4.90728 6.48068C5.12271 6.12197 5.40036 5.97347 5.80893 5.98793C6.52207 6.01204 7.23614 5.99468 7.95021 5.99468C8.01521 5.99468 8.08021 5.99468 8.18886 5.99468C8.18886 5.61283 8.16193 5.25411 8.1935 4.90022C8.36621 2.93983 9.30314 1.49243 10.9801 0.586968C12.0647 0.00164663 13.2384 -0.105389 14.4316 0.0884323C16.2377 0.381575 17.5284 1.41529 18.3084 3.12497C18.6455 3.86361 18.7625 4.65818 18.7588 5.47204C18.7579 5.64176 18.7588 5.81243 18.7588 5.99372C18.8544 5.99372 18.9213 5.99372 18.9881 5.99372C19.7514 5.99372 20.5138 5.99565 21.2771 5.99276C21.6132 5.99179 21.8556 6.13354 21.9902 6.4614C22.019 6.53083 22.0608 6.59543 22.1007 6.66004C22.5678 7.41893 23.0321 8.17879 23.5047 8.93383C23.774 9.36969 24.0442 9.80265 24.1417 10.3214ZM13.4678 10.3571C10.4778 10.3571 7.48778 10.3571 4.49778 10.3571C4.23314 10.3571 4.23221 10.3571 4.23221 10.631C4.23221 15.4543 4.23221 20.2787 4.23221 25.102C4.23221 25.3855 4.23221 25.3855 4.51078 25.3855C10.4787 25.3855 16.4466 25.3855 22.4146 25.3855C22.6922 25.3855 22.695 25.3826 22.695 25.0982C22.695 20.2806 22.695 15.463 22.695 10.6464C22.695 10.3571 22.695 10.3571 22.4211 10.3571C19.4357 10.3571 16.4522 10.3571 13.4678 10.3571ZM9.60586 5.98215C12.1845 5.98215 14.7511 5.98215 17.3158 5.98215C17.4309 4.42868 17.0224 3.01311 15.7159 2.13368C14.3369 1.20604 12.8521 1.18193 11.4296 2.00254C9.955 2.85304 9.51857 4.29561 9.60586 5.98215ZM9.60864 7.46136C9.60864 7.94061 9.60864 8.40926 9.60864 8.88658C12.1845 8.88658 14.7511 8.88658 17.3214 8.88658C17.3214 8.40347 17.3214 7.93483 17.3214 7.46136C14.7446 7.46136 12.1817 7.46136 9.60864 7.46136ZM8.15078 7.45076C7.45064 7.45076 6.76907 7.44786 6.0875 7.45558C6.03736 7.45654 5.97143 7.51922 5.93986 7.57033C5.69378 7.96761 5.45421 8.36972 5.21464 8.77086C5.19421 8.80558 5.18307 8.84608 5.16728 8.88754C6.16921 8.88754 7.15628 8.88754 8.15078 8.88754C8.15078 8.40926 8.15078 7.94447 8.15078 7.45076ZM18.7662 8.88851C19.7691 8.88851 20.7496 8.88851 21.7451 8.88851C21.7302 8.8509 21.7237 8.82776 21.7116 8.80847C21.4554 8.38804 21.2028 7.96472 20.9381 7.55008C20.9038 7.49608 20.8119 7.45558 20.745 7.45461C20.1368 7.44786 19.5276 7.44979 18.9194 7.45076C18.8674 7.45076 18.8145 7.45943 18.7653 7.46426C18.7662 7.94929 18.7662 8.41408 18.7662 8.88851Z" fill="#686868"/>
</svg>
